<?xml version="1.0" encoding="UTF-8" standalone="no"?>
<!-- Generator: Adobe Illustrator 23.0.3, SVG Export Plug-In . SVG Version: 6.00 Build 0)  -->

<svg
   xmlns:dc="http://purl.org/dc/elements/1.1/"
   xmlns:cc="http://creativecommons.org/ns#"
   xmlns:rdf="http://www.w3.org/1999/02/22-rdf-syntax-ns#"
   xmlns:svg="http://www.w3.org/2000/svg"
   xmlns="http://www.w3.org/2000/svg"
   xmlns:sodipodi="http://sodipodi.sourceforge.net/DTD/sodipodi-0.dtd"
   xmlns:inkscape="http://www.inkscape.org/namespaces/inkscape"
   version="1.1"
   id="Camada_1"
   x="0px"
   y="0px"
   viewBox="0 0 150 69.999998"
   xml:space="preserve"
   sodipodi:docname="grupo-nexxera-mono-branco.svg"
   width="150"
   height="70"
   inkscape:version="0.92.3 (2405546, 2018-03-11)"><metadata
   id="metadata6735"><rdf:RDF><cc:Work
       rdf:about=""><dc:format>image/svg+xml</dc:format><dc:type
         rdf:resource="http://purl.org/dc/dcmitype/StillImage" /><dc:title></dc:title></cc:Work></rdf:RDF></metadata><defs
   id="defs6733" /><sodipodi:namedview
   pagecolor="#ffffff"
   bordercolor="#666666"
   borderopacity="1"
   objecttolerance="10"
   gridtolerance="10"
   guidetolerance="10"
   inkscape:pageopacity="0"
   inkscape:pageshadow="2"
   inkscape:window-width="1920"
   inkscape:window-height="1025"
   id="namedview6731"
   showgrid="false"
   inkscape:zoom="5.7381704"
   inkscape:cx="59.223014"
   inkscape:cy="37.951048"
   inkscape:window-x="0"
   inkscape:window-y="325"
   inkscape:window-maximized="1"
   inkscape:current-layer="Camada_1" />
<style
   type="text/css"
   id="style6694">
	.st0{fill:#1F140F;}
</style>
<g
   id="g6728"
   transform="matrix(0.39445437,0,0,0.39445437,1.7569162,1.4173066)"
   style="fill:#ffffff">
	<g
   id="g6726"
   style="fill:#ffffff">
		<g
   id="g6724"
   style="fill:#ffffff">
			<path
   class="st0"
   d="M 125.8,165.3 C 77.3,165.3 29.9,129.8 19.8,86 9.7,42.2 40.8,6.8 89.3,6.8 113.5,6.8 137.4,15.7 156.6,30 135,11.6 106.4,0 77.5,0 24.9,0 -8.9,38.5 2.1,86 c 10.9,47.5 62.4,86 115,86.1 28.9,0 52.1,-11.6 65.3,-29.9 -12.5,14.3 -32.4,23.1 -56.6,23.1 z"
   id="path6696"
   inkscape:connector-curvature="0"
   style="fill:#ffffff" />
			<path
   class="st0"
   d="m 67.4,57.5 c 1.7,0 2.9,0.5 4,1.3 0.3,0.2 0.7,0.4 1.2,0.4 1.1,0 2,-0.9 2,-2 0,-0.8 -0.4,-1.3 -0.8,-1.6 -1.6,-1.2 -3.5,-1.8 -6.2,-1.8 -5.5,0 -9.6,4.3 -9.6,9.5 v 0 c 0,5.4 3.9,9.4 9.6,9.4 2.7,0 4.9,-0.9 6.4,-1.8 1,-0.6 1.4,-1.4 1.4,-2.6 v -4.4 c 0,-1.1 -0.9,-2 -2,-2 h -4.6 c -1,0 -1.7,0.8 -1.7,1.7 0,1 0.8,1.7 1.7,1.7 h 2.7 V 68 c -1,0.7 -2.3,1.1 -3.8,1.1 -3.2,0 -5.5,-2.5 -5.5,-5.8 v -0.1 c -0.1,-3.1 2.3,-5.7 5.2,-5.7 z"
   id="path6698"
   inkscape:connector-curvature="0"
   style="fill:#ffffff" />
			<path
   class="st0"
   d="m 95.8,59.8 v 0 c 0,-1.8 -0.5,-3.2 -1.6,-4.2 -1.2,-1.2 -3,-1.8 -5.3,-1.8 h -6.3 c -1.1,0 -2,0.9 -2,2 v 15 c 0,1.1 0.9,2 2,2 1.1,0 2,-0.9 2,-2 v -4.7 h 3.2 l 3.8,5.7 c 0.5,0.6 1.1,1 2,1 1,0 1.9,-0.7 1.9,-1.8 0,-0.6 -0.3,-1 -0.6,-1.5 l -2.7,-4.1 c 2.2,-1 3.6,-2.7 3.6,-5.6 z m -4,0.2 c 0,1.5 -1.1,2.6 -3,2.6 h -4 v -5.2 h 4 c 1.8,0 3,0.9 3,2.6 z"
   id="path6700"
   inkscape:connector-curvature="0"
   style="fill:#ffffff" />
			<path
   class="st0"
   d="m 116.7,64.4 v -8.6 c 0,-1.1 -0.9,-2 -2,-2 -1.1,0 -2,0.9 -2,2 v 8.7 c 0,2.9 -1.5,4.4 -4,4.4 -2.5,0 -4,-1.6 -4,-4.6 v -8.6 c 0,-1.1 -0.9,-2 -2,-2 -1.1,0 -2,0.9 -2,2 v 8.7 c 0,5.4 3,8.2 8,8.2 4.8,0.2 8,-2.6 8,-8.2 z"
   id="path6702"
   inkscape:connector-curvature="0"
   style="fill:#ffffff" />
			<path
   class="st0"
   d="m 136.9,59.8 c 0,-1.7 -0.5,-3.1 -1.6,-4.1 -1.2,-1.2 -3,-1.8 -5.3,-1.8 h -1.1 -3.1 -2.1 c -1.1,0 -2,0.9 -2,2 v 7.8 0.5 6.7 c 0,1.1 0.9,2 2,2 1.1,0 2,-0.9 2,-2 v -4.7 h 3.2 1.1 c 2.3,0 4.1,-0.6 5.3,-1.8 1,-1 1.6,-2.4 1.6,-4.1 v -0.1 c 0,0 0,-0.1 0,-0.1 0,-0.2 0,-0.2 0,-0.3 z m -7.2,2.7 h -4 v -5.1 h 4 c 1.9,0 3.1,0.9 3.1,2.6 0,1.6 -1.2,2.5 -3.1,2.5 z"
   id="path6704"
   inkscape:connector-curvature="0"
   style="fill:#ffffff" />
			<path
   class="st0"
   d="m 140.3,63.3 v 0 c 0,5.3 4.1,9.5 9.7,9.5 5.6,0 9.7,-4.3 9.7,-9.5 v -0.1 c 0,-5.2 -4,-9.4 -9.7,-9.4 -5.6,0 -9.7,4.3 -9.7,9.5 z m 15.2,0 v 0 c 0,3.2 -2.3,5.7 -5.5,5.7 -3.2,0 -5.5,-2.6 -5.5,-5.7 v -0.1 c 0,-3.1 2.2,-5.7 5.5,-5.7 3.2,0 5.5,2.7 5.5,5.8 z"
   id="path6706"
   inkscape:connector-curvature="0"
   style="fill:#ffffff" />
			<path
   class="st0"
   d="m 57.9,109.1 c 0,1.6 1.3,2.9 2.9,2.9 1.6,0 2.9,-1.3 2.9,-2.9 V 89.2 l 36.7,22.3 c 0.6,0.3 1.2,0.5 1.8,0.4 0.1,0 0.2,0 0.3,0 1.6,0 2.9,-1.3 2.9,-2.9 V 84.6 c 0,-1.6 -1.3,-2.9 -2.9,-2.9 -1.6,0 -2.9,1.3 -2.9,2.9 v 19.7 L 63.2,82.1 c -0.6,-0.4 -1.3,-0.5 -1.9,-0.4 -0.1,0 -0.3,0 -0.4,0 -1.6,0 -2.9,1.3 -2.9,2.9 v 24.5 z"
   id="path6708"
   inkscape:connector-curvature="0"
   style="fill:#ffffff" />
			<path
   class="st0"
   d="m 114.2,81.7 c -1.6,0 -2.9,1.3 -2.9,2.9 0,1.6 1.3,2.9 2.9,2.9 h 43.6 c 1.6,0 2.9,-1.3 2.9,-2.9 0,-1.6 -1.3,-2.9 -2.9,-2.9 z"
   id="path6710"
   inkscape:connector-curvature="0"
   style="fill:#ffffff" />
			<path
   class="st0"
   d="m 117.1,104 v -4.3 h 40.7 c 1.6,0 2.9,-1.3 2.9,-2.9 0,-1.6 -1.3,-2.9 -2.9,-2.9 h -43.6 c -1.6,0 -2.9,1.3 -2.9,2.9 0,0 0,0.1 0,0.2 0,0.1 0,0.1 0,0.2 v 7.6 c 0,0 0,0.1 0,0.1 0,0 0,0 0,0 0,3.9 3.1,7.1 7,7.1 h 0.2 c 0,0 0,0 0.1,0 0,0 0.1,0 0.1,0 h 39.1 c 1.6,0 2.9,-1.3 2.9,-2.9 0,-1.6 -1.3,-2.9 -2.9,-2.9 h -32.4 -7 v 0 c -0.7,0 -1.3,-0.6 -1.3,-1.3 v 0 z"
   id="path6712"
   inkscape:connector-curvature="0"
   style="fill:#ffffff" />
			<path
   class="st0"
   d="m 262.7,81.7 h -43.6 c -1.6,0 -2.9,1.3 -2.9,2.9 0,1.6 1.3,2.9 2.9,2.9 h 43.6 c 1.6,0 2.9,-1.3 2.9,-2.9 0,-1.6 -1.3,-2.9 -2.9,-2.9 z"
   id="path6714"
   inkscape:connector-curvature="0"
   style="fill:#ffffff" />
			<path
   class="st0"
   d="m 222,104 v -4.3 h 40.7 c 1.6,0 2.9,-1.3 2.9,-2.9 0,-1.6 -1.3,-2.9 -2.9,-2.9 h -43.6 c -1.6,0 -2.9,1.3 -2.9,2.9 0,0 0,0.1 0,0.2 0,0.1 0,0.1 0,0.2 v 7.6 c 0,0 0,0.1 0,0.1 0,0 0,0 0,0 0,3.9 3.1,7.1 7,7.1 h 0.2 c 0,0 0,0 0.1,0 0,0 0.1,0 0.1,0 h 39.1 c 1.6,0 2.9,-1.3 2.9,-2.9 0,-1.6 -1.3,-2.9 -2.9,-2.9 h -32.4 -7 v 0 c -0.7,0 -1.3,-0.6 -1.3,-1.3 v 0 z"
   id="path6716"
   inkscape:connector-curvature="0"
   style="fill:#ffffff" />
			<path
   class="st0"
   d="M 368.2,107.5 353.7,85.3 c -1.3,-2.2 -3.7,-3.6 -6.4,-3.6 -2.8,0 -5.2,1.5 -6.4,3.7 l -14.4,22.1 c -0.9,1.3 -0.5,3.1 0.8,4 1.3,0.9 3.1,0.5 4,-0.8 l 5.3,-8.1 H 358 l 5.3,8.1 c 0.9,1.3 2.7,1.7 4,0.8 1.4,-0.9 1.8,-2.7 0.9,-4 z m -27.7,-10.7 5.6,-8.6 c 0,0 0,0 0,-0.1 0.3,-0.4 0.7,-0.7 1.3,-0.7 0.5,0 1,0.3 1.3,0.7 0,0 0,0 0,0 v 0 l 5.6,8.6 h -13.8 z"
   id="path6718"
   inkscape:connector-curvature="0"
   style="fill:#ffffff" />
			<path
   class="st0"
   d="m 313.2,81.7 v 0 H 313 274.2 c -1.6,0 -2.9,1.3 -2.9,2.9 0,1.6 1.3,2.9 2.9,2.9 H 313 v 0 c 0.7,0 1.3,0.6 1.3,1.3 v 3.5 c 0,0.7 -0.6,1.3 -1.3,1.3 v 0 0 c 0,0 0,0 0,0 h -38.8 c -0.3,0 -0.5,0 -0.7,0.1 0,0 -0.1,0 -0.1,0 -1.2,0.4 -2,1.5 -2,2.8 V 109 c 0,1.6 1.3,2.9 2.9,2.9 1.6,0 2.9,-1.3 2.9,-2.9 v -9.6 h 21.6 l 16.9,12 c 1.3,0.9 3.1,0.6 4,-0.7 0.9,-1.3 0.6,-3.1 -0.7,-4 l -10.3,-7.3 h 4.3 c 0,0 0,0 0,0 h 0.2 c 3.4,0 6.2,-2.5 6.9,-5.7 0.1,-0.3 0.2,-0.6 0.2,-0.9 v -4.4 c 0,-0.2 0,-0.3 0,-0.5 -0.4,-3.4 -3.4,-6.2 -7.1,-6.2 z"
   id="path6720"
   inkscape:connector-curvature="0"
   style="fill:#ffffff" />
			<path
   class="st0"
   d="m 213.6,69.1 c -1.5,1.4 -5.2,4.8 -9.9,9.2 0,0 0,0 0,0 -0.1,-0.1 -0.2,-0.2 -0.4,-0.3 -0.1,0 -0.1,-0.1 -0.1,-0.1 0,0 0,0 0,0 -0.7,-0.6 -1.3,-1.1 -2,-1.6 -0.1,-0.1 -0.2,-0.1 -0.3,-0.2 -0.1,-0.1 -0.2,-0.2 -0.4,-0.3 -0.2,-0.1 -0.3,-0.3 -0.5,-0.4 -0.1,-0.1 -2.1,-1.5 -2.2,-1.6 0,0 0,0 0,0 -1.6,-1.1 -2.9,-1.8 -4.7,-2.8 0,0 -2.9,-1.4 -4,-1.3 -0.7,0.1 -0.7,0.3 -0.7,0.6 0,0.3 0.6,0.6 0.8,0.7 0.2,0.1 0.3,0.2 0.5,0.3 0,0 0,0 0,0 0.1,0 0.1,0.1 0.2,0.1 1.6,1 3,1.9 4.2,2.7 0,0 0.1,0.1 0.1,0.1 0.6,0.4 1.1,0.8 1.6,1.1 0.9,0.7 1.7,1.3 2.5,2 0,0 0.1,0 0.1,0 1.5,1.2 2.3,2 2.4,2.1 0.1,0.1 0.2,0.2 0.2,0.2 0.1,0.1 0.1,0.1 0.2,0.2 0.1,0.1 0.2,0.2 0.2,0.2 v 0 c 0,0 0.1,0.1 0.1,0.1 0,0 0.1,0.1 0.1,0.1 -1.8,1.6 -3.6,3.3 -5.5,5.1 l -6,5.6 c 0,0 -0.1,-0.1 -0.1,-0.1 -0.1,-0.1 -0.2,-0.2 -0.3,-0.3 -0.1,-0.1 -0.3,-0.2 -0.4,-0.4 -0.2,-0.2 -0.5,-0.4 -0.7,-0.7 -0.1,-0.1 -0.2,-0.1 -0.2,-0.2 -0.7,-0.6 -1.4,-1.2 -2.2,-1.8 -0.1,-0.1 -0.2,-0.2 -0.3,-0.3 -0.1,-0.1 -0.2,-0.2 -0.3,-0.2 -1.4,-1.1 -2.9,-2.2 -4.6,-3.3 0,0 0,0 0,0 -0.2,-0.1 -0.3,-0.2 -0.5,-0.3 -0.4,-0.3 -0.8,-0.5 -1.2,-0.8 0,0 0,0 0,0 -1.8,-1.1 -3.6,-2.1 -5.8,-3.3 0,0 -4.6,-2.3 -6.4,-2.1 -1.1,0.1 -1.1,0.5 -1.1,0.9 0,0.4 1,0.9 1.3,1.1 6,3.6 10.5,6.9 13.5,9.3 0.2,0.2 0.4,0.3 0.5,0.4 0.4,0.3 0.8,0.6 1.1,0.9 1.8,1.6 3.3,3 4.4,4.2 L 175,104.6 c -6.3,5.8 -10.7,9.9 -10.7,9.9 0,0 0,0.1 -0.1,0.1 -0.1,0.1 -0.2,0.2 -0.3,0.3 0,0 0,0 0,0 0,0 0,0.1 0,0.1 -0.2,0.4 -0.3,0.8 -0.1,1.3 0,0.1 0.1,0.2 0.1,0.3 0,0.1 0.1,0.1 0.2,0.2 0.1,0.1 0.3,0.3 0.5,0.4 0,0 0.1,0.1 0.1,0.1 0,0 0,0 0,0 0.6,0.4 1.4,0.6 2.6,0.7 5.6,0.4 7.9,-2.9 7.9,-2.9 l 0.6,-0.7 c 0,0 0.4,-0.4 1.1,-1.2 0,0 0,0 0,0 v 0 c 2.2,-2.4 7.3,-8.3 13.2,-15 l 1.3,1.7 c 3.5,4.9 6.1,9.8 7.4,14.7 0,0 0.6,2.4 3.8,1.8 2.6,-0.5 2.7,-2.3 2.2,-3.5 0,-0.1 -0.1,-0.1 -0.1,-0.2 0,0 0,0 0,0 -0.4,-1 -0.8,-2 -1.2,-3 -0.2,-0.3 -0.3,-0.7 -0.5,-1 -0.4,-1 -0.9,-1.9 -1.4,-2.8 -0.1,-0.1 -0.1,-0.3 -0.2,-0.4 -0.6,-1.2 -1.3,-2.3 -2,-3.3 -0.1,-0.1 -0.1,-0.2 -0.1,-0.2 -0.8,-1.2 -1.5,-2.2 -2.3,-3.2 0,0 0,0 0,0 -0.1,-0.1 -0.1,-0.2 -0.2,-0.3 0,0 0,0 0,0 0,0 0,0 0,0 -1.2,-1.6 -2.4,-2.9 -3.4,-4.1 3.4,-3.9 7,-8 10.2,-11.7 l 0.9,1.1 c 2.2,3.1 3.8,6.2 4.7,9.2 0,0 0.4,1.5 2.4,1.1 1.7,-0.3 1.7,-1.4 1.4,-2.2 -0.2,-0.7 -0.5,-1.4 -0.8,-2.1 0,0 0,0 0,0 0,0 0,-0.1 0,-0.1 -0.5,-1.1 -1.1,-2.1 -1.7,-3.2 v 0 c 0,-0.1 -0.1,-0.1 -0.1,-0.2 -0.2,-0.3 -0.3,-0.6 -0.5,-0.9 -0.4,-0.7 -0.8,-1.3 -1.3,-2 -0.2,-0.3 -0.4,-0.6 -0.7,-0.8 -0.2,-0.2 -0.4,-0.4 -0.5,-0.7 -0.2,-0.3 -0.4,-0.6 -0.7,-0.9 v 0 c -0.3,-0.3 -0.5,-0.5 -0.8,-0.8 4.1,-4.8 7.4,-8.7 8.7,-10.4 0.5,-0.6 0.3,-0.9 0.2,-0.9 -0.3,-0.1 -0.7,-0.3 -1.2,0.2 z"
   id="path6722"
   inkscape:connector-curvature="0"
   style="fill:#ffffff" />
		</g>
	</g>
</g>
</svg>